<?xml version="1.0" standalone="no"?>
<!DOCTYPE svg PUBLIC "-//W3C//DTD SVG 20010904//EN"
 "http://www.w3.org/TR/2001/REC-SVG-20010904/DTD/svg10.dtd">
<svg version="1.0" xmlns="http://www.w3.org/2000/svg"
 width="758.000000pt" height="758.000000pt" viewBox="0 0 758.000000 758.000000"
 preserveAspectRatio="xMidYMid meet">
<metadata>
Created by potrace 1.11, written by Peter Selinger 2001-2013
</metadata>
<g transform="translate(0.000000,758.000000) scale(0.100000,-0.100000)"
fill="#000000" stroke="none">
<path d="M3549 7566 c-2 -2 -42 -6 -89 -10 -89 -7 -112 -10 -220 -27 -36 -5
-81 -12 -100 -14 -38 -5 -65 -11 -245 -54 -128 -31 -309 -85 -337 -101 -10 -6
-23 -10 -29 -10 -27 0 -269 -104 -424 -182 -214 -108 -455 -264 -655 -424
-119 -95 -381 -345 -481 -459 -51 -59 -218 -274 -248 -320 -14 -22 -28 -42
-32 -45 -5 -5 -99 -156 -151 -244 -48 -81 -153 -293 -203 -411 -118 -277 -224
-665 -260 -955 -4 -30 -9 -64 -11 -75 -19 -98 -26 -601 -11 -760 13 -145 17
-179 27 -235 5 -30 12 -71 15 -90 3 -19 10 -57 15 -85 6 -27 12 -60 15 -73 2
-13 6 -31 9 -40 3 -9 7 -28 10 -42 8 -42 46 -181 73 -265 152 -476 396 -916
727 -1310 54 -64 337 -350 396 -400 109 -92 152 -127 220 -175 41 -30 77 -57
80 -60 14 -16 191 -126 370 -230 26 -15 193 -97 265 -130 255 -117 653 -236
920 -275 22 -4 51 -8 65 -10 14 -3 56 -7 95 -11 38 -4 73 -8 76 -10 9 -5 280
-16 384 -16 132 0 327 12 440 28 173 23 344 55 475 89 36 10 70 18 75 20 6 1
13 3 17 4 4 1 72 24 150 50 324 109 611 249 888 434 202 135 399 296 565 462
111 111 235 247 264 288 16 23 39 52 56 71 25 26 126 168 186 261 99 152 226
382 278 505 13 30 33 78 46 105 111 249 230 697 260 987 3 29 8 62 10 73 24
119 24 604 0 795 -3 19 -7 58 -10 85 -9 72 -36 238 -40 244 -1 3 -6 24 -9 46
-4 22 -16 78 -27 125 -12 47 -22 92 -24 100 -2 8 -13 47 -25 85 -99 316 -197
545 -336 785 -37 63 -72 125 -78 137 -6 13 -14 23 -18 23 -5 0 -8 5 -8 11 0 6
-34 59 -75 118 -208 296 -432 539 -725 785 -50 42 -216 164 -275 202 -33 22
-64 42 -70 47 -22 16 -86 57 -91 57 -2 0 -23 12 -46 26 -93 59 -333 176 -488
237 -139 55 -389 138 -457 151 -10 2 -36 9 -58 15 -22 5 -55 13 -74 16 -19 3
-38 8 -42 11 -4 2 -29 7 -55 10 -27 3 -51 7 -54 9 -3 2 -33 7 -65 10 -33 4
-62 9 -65 10 -3 2 -37 6 -75 10 -39 4 -81 9 -95 12 -30 5 -586 14 -591 9z"/>
</g>
</svg>
