<svg id="Layer_1" data-name="Layer 1" xmlns="http://www.w3.org/2000/svg" width="140" height="31.5" viewBox="0 0 140 31.5"><defs><style>.cls-1{fill:#fff;}</style></defs><title>ys_logo</title><path class="cls-1" d="M129.19,18.15l-5.7-16.42h4.68L131,10.68l0.47,2.72,0.32-2.72,2.72-8.95h4.71l-5.72,16.42V30h-4.26V18.15Z"/><path class="cls-1" d="M79.7,22.79a7.89,7.89,0,0,1-1.53,5,5.49,5.49,0,0,1-2.91,2,8,8,0,0,1-2.35.31,6.65,6.65,0,0,1-4.13-1.23,6.89,6.89,0,0,1-2.16-2.75,11.07,11.07,0,0,1-.93-4l4-.29A6.14,6.14,0,0,0,71,25.43a2.17,2.17,0,0,0,1.75.79A2.63,2.63,0,0,0,75,24.85,3.38,3.38,0,0,0,75.42,23a5.16,5.16,0,0,0-1.59-3.48l-3.77-3.57a16.07,16.07,0,0,1-3-3.66,8.46,8.46,0,0,1-.94-3.95,6.88,6.88,0,0,1,2.58-5.82,6.42,6.42,0,0,1,3.95-1.19,7.18,7.18,0,0,1,3.88,1,5.83,5.83,0,0,1,2,2.2,8.13,8.13,0,0,1,.93,3.25l-4.06.74a4.89,4.89,0,0,0-1-2.69,2.07,2.07,0,0,0-1.68-.7,1.93,1.93,0,0,0-1.77,1,4,4,0,0,0-.5,2.06,6.19,6.19,0,0,0,1.66,3.92A13.91,13.91,0,0,0,74,14q1.48,1.24,2,1.73a14.5,14.5,0,0,1,2.42,3.09,12.51,12.51,0,0,1,.65,1.33A7.76,7.76,0,0,1,79.7,22.79Z"/><path class="cls-1" d="M84.83,6H80.33V1.69H93.56V6H89.07V29.79H84.83V6Z"/><path class="cls-1" d="M101.41,1.33a6.47,6.47,0,0,1,4.77,2,6.5,6.5,0,0,1,2,4.75V23.4a6.71,6.71,0,1,1-13.43,0V8.06a6.46,6.46,0,0,1,2-4.76A6.48,6.48,0,0,1,101.41,1.33ZM103.72,8a2.42,2.42,0,0,0-2.42-2.42,2.38,2.38,0,0,0-1.73.71A2.32,2.32,0,0,0,98.85,8V23.35a2.31,2.31,0,0,0,.72,1.72,2.38,2.38,0,0,0,1.73.71,2.41,2.41,0,0,0,2.42-2.42V8Z"/><path class="cls-1" d="M116.34,1.69q3.54,0,5.2,2A7.09,7.09,0,0,1,123,8.4v4.08a6.56,6.56,0,0,1-2.27,5l3.14,12.27H119.3L116.72,19.2H113.9V29.79h-4.24V1.69h6.68Zm2.53,6.77A2.15,2.15,0,0,0,116.46,6H113.9v9h2.56a2.32,2.32,0,0,0,1.72-.71,2.39,2.39,0,0,0,.71-1.73V8.46Z"/><path class="cls-1" d="M6.53,17.73L0.83,1.31H5.52L8.3,10.26,8.76,13l0.32-2.72L11.8,1.31h4.71L10.79,17.73V29.55H6.53V17.73Z"/><path class="cls-1" d="M23.66,1a6.49,6.49,0,0,1,4.79,2,6.52,6.52,0,0,1,2,4.77V23.13a6.75,6.75,0,0,1-6.76,6.76,6.45,6.45,0,0,1-4.77-2,6.54,6.54,0,0,1-2-4.77V7.73a6.49,6.49,0,0,1,2-4.79A6.5,6.5,0,0,1,23.66,1ZM26,7.64a2.42,2.42,0,0,0-2.43-2.43,2.38,2.38,0,0,0-1.73.71,2.33,2.33,0,0,0-.72,1.72V23.09a2.33,2.33,0,0,0,.72,1.72,2.38,2.38,0,0,0,1.73.71A2.42,2.42,0,0,0,26,23.09V7.64Z"/><path class="cls-1" d="M40.38,29.87a6.69,6.69,0,0,1-6.73-6.71V1.33h4.17V23.11a2.33,2.33,0,0,0,.72,1.73,2.39,2.39,0,0,0,1.73.71,2.42,2.42,0,0,0,2.43-2.43V1.33h4.44V23.16a6.41,6.41,0,0,1-2,4.77A6.59,6.59,0,0,1,40.38,29.87Z"/><path class="cls-1" d="M57,1.33q3.56,0,5.23,2a7.11,7.11,0,0,1,1.46,4.77v4.1a6.59,6.59,0,0,1-2.27,5.07l3.15,12.32h-4.6L57.37,18.92H54.53V29.55H50.27V1.33H57Zm2.54,6.8A2.16,2.16,0,0,0,57.1,5.68H54.53v9H57.1A2.33,2.33,0,0,0,58.82,14a2.38,2.38,0,0,0,.71-1.73V8.14Z"/></svg>